<svg xmlns="http://www.w3.org/2000/svg" version="1.1" xmlns:xlink="http://www.w3.org/1999/xlink" xmlns:svgjs="http://svgjs.dev/svgjs" width="1000" height="280" viewBox="0 0 1000 280"><g transform="matrix(1,0,0,1,-0.6060400395168131,0.16551676370951895)"><svg viewBox="0 0 396 111" data-background-color="#ffffff" preserveAspectRatio="xMidYMid meet" height="280" width="1000" xmlns="http://www.w3.org/2000/svg" xmlns:xlink="http://www.w3.org/1999/xlink"><g id="tight-bounds" transform="matrix(1,0,0,1,0.2399918556486682,-0.06561557418484654)"><svg viewBox="0 0 395.52 111.13123114836966" height="111.13123114836966" width="395.52"><g><svg viewBox="0 0 595.1786469206744 167.23031903700286" height="111.13123114836966" width="395.52"><g transform="matrix(1,0,0,1,199.65864692067444,49.274176229569484)"><svg viewBox="0 0 395.52 68.68196657786389" height="68.68196657786389" width="395.52"><g id="textblocktransform"><svg viewBox="0 0 395.52 68.68196657786389" height="68.68196657786389" width="395.52" id="textblock"><g><svg viewBox="0 0 395.52 68.68196657786389" height="68.68196657786389" width="395.52"><g transform="matrix(1,0,0,1,0,0)"><svg width="395.52" viewBox="1.600000023841858 -35.599998474121094 206.4399871826172 35.849998474121094" height="68.68196657786389" data-palette-color="#0074d9"><path d="M1.6-17.7Q1.6-22.9 3.78-26.98 5.95-31.05 9.95-33.33 13.95-35.6 19.15-35.6L19.15-35.6Q25.75-35.6 30.25-32.08 34.75-28.55 36.05-22.5L36.05-22.5 25.5-22.5Q24.55-24.5 22.88-25.55 21.2-26.6 19-26.6L19-26.6Q15.6-26.6 13.58-24.18 11.55-21.75 11.55-17.7L11.55-17.7Q11.55-13.6 13.58-11.18 15.6-8.75 19-8.75L19-8.75Q21.2-8.75 22.88-9.8 24.55-10.85 25.5-12.85L25.5-12.85 36.05-12.85Q34.75-6.8 30.25-3.28 25.75 0.25 19.15 0.25L19.15 0.25Q13.95 0.25 9.95-2.02 5.95-4.3 3.78-8.38 1.6-12.45 1.6-17.7L1.6-17.7ZM62.45-35.25L72.25-35.25 72.25 0 62.45 0 62.45-14.15 50.5-14.15 50.5 0 40.7 0 40.7-35.25 50.5-35.25 50.5-22 62.45-22 62.45-35.25ZM102.05 0L100.15-5.75 87.65-5.75 85.75 0 75.45 0 88.3-35.25 99.59-35.25 112.4 0 102.05 0ZM90.15-13.25L97.7-13.25 93.9-24.65 90.15-13.25ZM113.64-35.25L142.14-35.25 142.14-27.45 132.74-27.45 132.74 0 122.94 0 122.94-27.45 113.64-27.45 113.64-35.25ZM143.84-35.25L172.34-35.25 172.34-27.45 162.94-27.45 162.94 0 153.14 0 153.14-27.45 143.84-27.45 143.84-35.25ZM196.99-35.25L208.04-35.25 195.64-11.2 195.64 0 185.79 0 185.79-11.2 173.39-35.25 184.59-35.25 190.79-21.65 196.99-35.25Z" opacity="1" transform="matrix(1,0,0,1,0,0)" fill="#0074d9" class="undefined-text-0" data-fill-palette-color="primary" id="text-0"></path></svg></g></svg></g></svg></g></svg></g><g><svg viewBox="0 0 167.23031903700286 167.23031903700286" height="167.23031903700286" width="167.23031903700286"><g><svg></svg></g><g id="icon-0"><svg viewBox="0 0 167.23031903700286 167.23031903700286" height="167.23031903700286" width="167.23031903700286"><g><path d="M0 83.615c0-46.179 37.436-83.615 83.615-83.615 46.179 0 83.615 37.436 83.615 83.615 0 46.179-37.436 83.615-83.615 83.615-46.179 0-83.615-37.436-83.615-83.615zM83.615 161.037c42.759 0 77.421-34.663 77.422-77.422 0-42.759-34.663-77.421-77.422-77.421-42.759 0-77.421 34.663-77.421 77.421 0 42.759 34.663 77.421 77.421 77.422z" data-fill-palette-color="accent" fill="#0074d9" stroke="transparent"></path></g><g transform="matrix(1,0,0,1,35.22722060434719,44.51363430733488)"><svg viewBox="0 0 96.77587782830848 78.20305042233309" height="78.20305042233309" width="96.77587782830848"><g><svg xmlns="http://www.w3.org/2000/svg" xmlns:xlink="http://www.w3.org/1999/xlink" version="1.1" x="0" y="0" viewBox="22.89200210571289 26 62.24599838256836 50.30000305175781" enable-background="new 0 0 100 100" xml:space="preserve" height="78.20305042233309" width="96.77587782830848" class="icon-s-0" data-fill-palette-color="accent" id="s-0"><g fill="#0074d9" data-fill-palette-color="accent"><g fill="#0074d9" data-fill-palette-color="accent"><path d="M48.183 72.318v-9.152H36.865c-8.175 0-13.973-6.427-13.973-14.182v-8.942C22.893 32.147 28.9 26 36.865 26h34.231c7.895 0 14.042 6.218 14.042 14.042v8.942c0 7.755-5.938 14.182-14.042 14.182h-5.03L54.959 75.112c-0.769 0.838-1.816 1.188-2.795 1.188-0.419 0-0.979-0.141-1.467-0.28C49.3 75.322 48.183 73.994 48.183 72.318zM30.717 40.042v8.942c0 3.633 2.585 6.288 6.148 6.288h12.994c2.166 0 3.911 1.816 3.911 3.982v8.384L63.831 56.25c0.629-0.699 1.747-0.979 2.795-0.979h4.471c3.493 0 6.148-2.515 6.148-6.288v-8.942c0-3.632-2.725-6.147-6.148-6.147H36.865c-1.747 0-3.215 0.559-4.332 1.746C31.275 36.758 30.717 38.225 30.717 40.042z" fill="#0074d9" data-fill-palette-color="accent"></path></g></g></svg></g></svg></g></svg></g></svg></g></svg></g><defs></defs></svg><rect width="395.52" height="111.13123114836966" fill="none" stroke="none" visibility="hidden"></rect></g></svg></g></svg>